<svg width="231" height="74" viewBox="0 0 231 74" fill="none" xmlns="http://www.w3.org/2000/svg">
<path d="M69.7133 44.7873C64.9865 64.1068 45.7841 75.8644 26.8228 71.0466C7.86925 66.2299 -3.66899 46.6614 1.06 27.343C5.78456 8.02126 24.987 -3.73746 43.9427 1.07918C62.9018 5.8958 74.439 25.4666 69.7133 44.7873ZM50.9898 30.9257C51.6942 26.127 48.1088 23.5474 43.2062 21.8266L44.7965 15.3262L40.9136 14.3401L39.3653 20.6691C38.3444 20.4099 37.2961 20.1654 36.2543 19.9231L37.8136 13.5524L33.9329 12.5663L32.3414 19.0644C31.4965 18.8682 30.667 18.6744 29.862 18.4704L29.8664 18.4502L24.5114 17.0877L23.4784 21.3138C23.4784 21.3138 26.3595 21.9866 26.2986 22.0283C27.8713 22.4283 28.1555 23.4888 28.1079 24.3295L26.2964 31.7348C26.4048 31.7629 26.5452 31.8035 26.7 31.8666C26.5707 31.8339 26.4324 31.7979 26.2898 31.7629L23.7505 42.1366C23.5581 42.6235 23.0703 43.3538 21.9711 43.0765C22.0098 43.134 19.1487 42.3587 19.1487 42.3587L17.2211 46.8879L22.2741 48.1715C23.2141 48.4115 24.1354 48.6629 25.0423 48.8996L23.4353 55.4742L27.3138 56.4603L28.9053 49.9555C29.9648 50.2486 30.9933 50.519 31.9997 50.7737L30.4138 57.2481L34.2967 58.2341L35.9037 51.6719C42.5249 52.9488 47.5038 52.4337 49.5996 46.3312C51.2884 41.4177 49.5155 38.5833 46.0319 36.7351C48.5689 36.139 50.4788 34.4384 50.9898 30.9257ZM42.1179 43.6028C40.918 48.5164 32.7993 45.8602 30.1672 45.1941L32.2994 36.4838C34.9315 37.1533 43.372 38.4786 42.1179 43.6028ZM43.319 30.8546C42.2241 35.3242 35.4668 33.0533 33.2749 32.4966L35.208 24.5966C37.4 25.1533 44.4592 26.1924 43.319 30.8546Z" fill="#FF9500"/>
<path d="M102.96 11.494C104.517 11.494 105.862 11.7702 106.993 12.3125C108.129 12.8601 109.066 13.5978 109.818 14.5255C110.56 15.458 111.112 16.5479 111.468 17.7969C111.822 19.0496 112 20.396 112 21.8376C112 24.0518 111.59 26.1437 110.762 28.1156C109.935 30.0904 108.812 31.8033 107.384 33.2644C105.957 34.7238 104.272 35.8743 102.329 36.7242C100.389 37.5747 98.2797 38 96.0148 38C95.722 38 95.2071 37.9917 94.4798 37.9768C93.7525 37.962 92.9166 37.8877 91.9804 37.7624C91.0383 37.6323 90.0422 37.4399 88.9902 37.1821C87.9389 36.9291 86.9404 36.5745 86 36.1243L94.4084 1.15523L101.939 0L98.9285 12.4093C99.5734 12.1218 100.223 11.8991 100.871 11.7369C101.52 11.5772 102.215 11.494 102.96 11.494ZM96.6425 32.0867C97.7768 32.0867 98.8456 31.8105 99.8492 31.2682C100.856 30.7253 101.725 29.9924 102.453 29.0795C103.181 28.1625 103.757 27.1296 104.177 25.9756C104.597 24.8215 104.81 23.6176 104.81 22.365C104.81 20.8261 104.55 19.6257 104.032 18.758C103.514 17.8938 102.556 17.459 101.164 17.459C100.708 17.459 100.12 17.5451 99.3922 17.6989C98.6614 17.8623 98.0069 18.2014 97.4208 18.7116L94.2152 31.8901C94.4084 31.9239 94.5794 31.956 94.7252 31.9863C94.868 32.019 95.0258 32.0421 95.1831 32.0582C95.3493 32.0766 95.5396 32.0861 95.7694 32.0861C95.9992 32.0861 96.2866 32.0867 96.6425 32.0867Z" fill="white"/>
<path d="M120.333 37H113L119.192 12.281H126.575L120.333 37ZM123.901 9.26927C122.877 9.26927 121.949 8.98028 121.126 8.40116C120.296 7.82548 119.885 6.93936 119.885 5.74509C119.885 5.08821 120.025 4.47192 120.305 3.89047C120.588 3.31016 120.958 2.81053 121.422 2.38576C121.884 1.96446 122.421 1.62788 123.03 1.37429C123.643 1.12476 124.295 1 124.99 1C126.013 1 126.936 1.28899 127.762 1.86813C128.585 2.45017 129 3.33628 129 4.52416C129 5.18338 128.86 5.80198 128.578 6.38229C128.299 6.96259 127.929 7.46222 127.465 7.887C127.006 8.30888 126.464 8.64428 125.856 8.89553C125.243 9.14914 124.593 9.26927 123.901 9.26927Z" fill="white"/>
<path d="M132.396 5.17836L139.849 4L138.019 11.6069H146L144.559 17.5913H136.626L134.513 26.6182C134.318 27.3707 134.208 28.0734 134.176 28.7265C134.142 29.3826 134.223 29.9461 134.415 30.4204C134.606 30.896 134.95 31.2625 135.449 31.5218C135.945 31.7853 136.655 31.9181 137.587 31.9181C138.355 31.9181 139.103 31.8435 139.826 31.6957C140.545 31.5503 141.273 31.3479 142.01 31.0832L142.541 36.6787C141.579 37.0386 140.538 37.3481 139.416 37.6086C138.292 37.8728 136.962 38 135.425 38C133.214 38 131.501 37.665 130.28 36.998C129.061 36.3261 128.199 35.4082 127.683 34.2462C127.175 33.0885 126.947 31.7538 127.01 30.2502C127.076 28.7429 127.299 27.1586 127.683 25.4902L132.396 5.17836Z" fill="white"/>
<path d="M146 26.6804C146 24.3909 146.351 22.2318 147.052 20.2107C147.751 18.1876 148.759 16.4186 150.067 14.9003C151.37 13.3896 152.958 12.1928 154.827 11.3141C156.687 10.4405 158.769 10 161.064 10C162.501 10 163.784 10.1435 164.913 10.4312C166.046 10.7213 167.072 11.0964 168 11.5669L165.559 17.4326C164.921 17.1593 164.259 16.9184 163.575 16.7C162.89 16.4772 162.054 16.3699 161.065 16.3699C158.702 16.3699 156.835 17.2304 155.445 18.9458C154.06 20.6625 153.363 22.9732 153.363 25.8717C153.363 27.5896 153.713 28.9787 154.418 30.0414C155.118 31.104 156.412 31.6326 158.289 31.6326C159.216 31.6326 160.111 31.5303 160.968 31.3306C161.831 31.1284 162.594 30.8738 163.265 30.573L163.794 36.586C162.898 36.9529 161.911 37.2843 160.828 37.5744C159.743 37.8546 158.451 38 156.953 38C154.975 38 153.301 37.6943 151.932 37.0921C150.562 36.4805 149.43 35.6687 148.539 34.6404C147.643 33.6095 146.999 32.4057 146.601 31.0242C146.203 29.6439 146 28.1937 146 26.6804Z" fill="white"/>
<path d="M178.316 38C176.564 38 175.041 37.7279 173.75 37.1894C172.462 36.6509 171.395 35.8952 170.552 34.9155C169.707 33.9408 169.075 32.7858 168.642 31.4548C168.208 30.1243 168 28.6511 168 27.0368C168 25.0118 168.32 22.9875 168.964 20.9688C169.607 18.9458 170.559 17.1281 171.82 15.5125C173.071 13.8944 174.614 12.5715 176.431 11.5401C178.247 10.5154 180.334 10 182.68 10C184.4 10 185.915 10.2727 187.224 10.8112C188.527 11.3485 189.6 12.1104 190.449 13.0851C191.289 14.0648 191.926 15.2149 192.355 16.5478C192.787 17.8757 193 19.3527 193 20.9683C193 22.9869 192.685 25.0112 192.06 27.0361C191.435 29.0511 190.507 30.8732 189.281 32.4925C188.058 34.1081 186.529 35.4303 184.692 36.4575C182.858 37.4846 180.731 38 178.316 38ZM181.987 16.3705C180.898 16.3705 179.936 16.6925 179.112 17.3284C178.285 17.9717 177.59 18.7804 177.03 19.7558C176.464 20.7355 176.044 21.8038 175.76 22.9651C175.479 24.1289 175.342 25.229 175.342 26.2742C175.342 27.9609 175.609 29.2744 176.133 30.2199C176.666 31.1602 177.622 31.6332 179.012 31.6332C180.105 31.6332 181.062 31.3137 181.891 30.671C182.713 30.0326 183.409 29.2233 183.973 28.2461C184.535 27.2714 184.958 26.1999 185.242 25.0368C185.52 23.8767 185.661 22.7704 185.661 21.727C185.661 20.0447 185.395 18.728 184.866 17.7839C184.336 16.8435 183.375 16.3705 181.987 16.3705Z" fill="white"/>
<path d="M200.335 37H193L199.189 12.281H206.572L200.335 37ZM203.896 9.26927C202.873 9.26927 201.947 8.98028 201.125 8.40116C200.299 7.82548 199.885 6.93936 199.885 5.74509C199.885 5.08821 200.028 4.47192 200.307 3.89047C200.586 3.31016 200.959 2.81053 201.422 2.38576C201.883 1.96446 202.423 1.62788 203.031 1.37429C203.64 1.12476 204.292 1 204.984 1C206.009 1 206.935 1.28899 207.759 1.86813C208.584 2.45017 209 3.33628 209 4.52416C209 5.18338 208.852 5.80198 208.575 6.38229C208.298 6.96259 207.926 7.46222 207.464 7.887C206.999 8.30888 206.465 8.64428 205.856 8.89553C205.242 9.14914 204.592 9.26927 203.896 9.26927Z" fill="white"/>
<path d="M211.804 11.8087C212.342 11.6438 212.944 11.4456 213.598 11.2299C214.254 11.0143 214.987 10.8136 215.807 10.6327C216.617 10.4462 217.532 10.295 218.537 10.1778C219.543 10.0582 220.689 10 221.962 10C225.704 10 228.284 11.1407 229.708 13.4154C231.131 15.69 231.377 18.803 230.454 22.7487L227.19 37H220.048L223.211 23.0486C223.404 22.1774 223.556 21.3354 223.668 20.5125C223.781 19.697 223.774 18.9783 223.642 18.3562C223.516 17.7415 223.219 17.2384 222.758 16.8487C222.29 16.4651 221.582 16.2724 220.622 16.2724C219.697 16.2724 218.756 16.3765 217.796 16.5773L213.145 36.9994H206L211.804 11.8087Z" fill="white"/>
<path d="M51.1479 30.8347C51.8586 26.022 48.2413 23.4347 43.2951 21.7088L44.8996 15.1892L40.9822 14.2002L39.4201 20.5479C38.3902 20.288 37.3325 20.0427 36.2814 19.7997L37.8547 13.4101L33.9394 12.4211L32.3338 18.9384C31.4814 18.7417 30.6446 18.5473 29.8323 18.3427L29.8368 18.3224L24.4342 16.9559L23.3921 21.1945C23.3921 21.1945 26.2987 21.8693 26.2373 21.9111C27.8239 22.3123 28.1107 23.3759 28.0627 24.2191L26.2351 31.6463C26.3444 31.6746 26.4861 31.7152 26.6423 31.7785C26.5118 31.7458 26.3723 31.7096 26.2284 31.6746L23.6666 42.0789C23.4724 42.5672 22.9804 43.2996 21.8713 43.0216C21.9104 43.0792 19.0239 42.3016 19.0239 42.3016L17.0791 46.8442L22.177 48.1316C23.1254 48.3724 24.0549 48.6244 24.9698 48.8618L23.3486 55.4559L27.2616 56.4449L28.8672 49.9209C29.9361 50.2147 30.9737 50.486 31.9891 50.7415L30.3891 57.235L34.3065 58.224L35.9277 51.6423C42.6078 52.9229 47.631 52.4064 49.7454 46.2859C51.4491 41.3578 49.6606 38.5151 46.1459 36.6614C48.7055 36.0635 50.6324 34.3579 51.1479 30.8347ZM42.1972 43.5494C40.9866 48.4775 32.7958 45.8134 30.1403 45.1454L32.2914 36.4094C34.947 37.0807 43.4625 38.41 42.1972 43.5494ZM43.4089 30.7635C42.3043 35.2463 35.487 32.9687 33.2756 32.4104L35.2259 24.487C37.4374 25.0454 44.5593 26.0875 43.4089 30.7635Z" fill="white"/>
<path d="M81 62.0093C81 60.647 81.2154 59.3648 81.6462 58.1627C82.077 56.9606 82.6939 55.9088 83.4968 55.0073C84.2997 54.1057 85.269 53.3945 86.4048 52.8736C87.5602 52.3527 88.8429 52.0922 90.2528 52.0922C91.1341 52.0922 91.9174 52.1824 92.6028 52.3627C93.3077 52.523 93.9442 52.7434 94.5121 53.0238L93.014 56.5098C92.6223 56.3496 92.2111 56.2093 91.7803 56.0891C91.369 55.9489 90.8599 55.8788 90.2528 55.8788C88.7841 55.8788 87.6287 56.3896 86.7867 57.4114C85.9446 58.4131 85.5236 59.7855 85.5236 61.5285C85.5236 62.5503 85.739 63.3817 86.1698 64.0228C86.6007 64.6439 87.3938 64.9544 88.5491 64.9544C89.117 64.9544 89.6654 64.8943 90.1941 64.7741C90.7228 64.6539 91.1928 64.5036 91.604 64.3233L91.9272 67.8995C91.3788 68.1199 90.7718 68.3102 90.106 68.4705C89.4597 68.6508 88.6666 68.7409 87.7267 68.7409C86.5125 68.7409 85.4844 68.5606 84.6424 68.2C83.8003 67.8394 83.1051 67.3585 82.5568 66.7575C82.0085 66.1364 81.6071 65.4152 81.3525 64.5938C81.1175 63.7724 81 62.9109 81 62.0093Z" fill="#F1F1F1"/>
<path d="M100.477 68.7409C99.4394 68.7409 98.5386 68.5807 97.7749 68.2601C97.0112 67.9395 96.3747 67.4888 95.8656 66.9078C95.376 66.3268 95.0039 65.6456 94.7494 64.8642C94.4948 64.0629 94.3675 63.1813 94.3675 62.2197C94.3675 61.0176 94.5535 59.8155 94.9256 58.6135C95.3173 57.4114 95.8852 56.3295 96.6293 55.3679C97.3734 54.4062 98.284 53.6249 99.3611 53.0238C100.438 52.4028 101.672 52.0922 103.062 52.0922C104.081 52.0922 104.972 52.2525 105.735 52.5731C106.519 52.8936 107.155 53.3444 107.645 53.9254C108.154 54.5064 108.536 55.1976 108.79 55.999C109.045 56.7803 109.172 57.6518 109.172 58.6135C109.172 59.8155 108.986 61.0176 108.614 62.2197C108.242 63.4218 107.694 64.5036 106.969 65.4653C106.244 66.4269 105.334 67.2183 104.237 67.8394C103.16 68.4404 101.907 68.7409 100.477 68.7409ZM102.651 55.8788C102.005 55.8788 101.437 56.0691 100.947 56.4497C100.458 56.8304 100.046 57.3112 99.7136 57.8922C99.3807 58.4732 99.1261 59.1143 98.9499 59.8155C98.7932 60.4967 98.7149 61.1478 98.7149 61.7689C98.7149 62.7907 98.8715 63.582 99.1848 64.143C99.4982 64.6839 100.066 64.9544 100.889 64.9544C101.535 64.9544 102.103 64.7641 102.592 64.3834C103.082 64.0028 103.493 63.5219 103.826 62.9409C104.159 62.3599 104.404 61.7288 104.56 61.0477C104.737 60.3465 104.825 59.6853 104.825 59.0642C104.825 58.0425 104.668 57.2611 104.355 56.7202C104.041 56.1592 103.473 55.8788 102.651 55.8788Z" fill="#F1F1F1"/>
<path d="M113.908 53.2342C114.241 53.134 114.603 53.0238 114.995 52.9036C115.406 52.7634 115.856 52.6432 116.346 52.543C116.855 52.4228 117.413 52.3326 118.02 52.2725C118.647 52.1924 119.352 52.1523 120.135 52.1523C122.446 52.1523 124.032 52.8335 124.894 54.1959C125.755 55.5582 125.902 57.4214 125.334 59.7855L123.337 68.3202H118.96L120.899 59.9658C121.016 59.4449 121.104 58.944 121.163 58.4632C121.241 57.9623 121.241 57.5316 121.163 57.171C121.085 56.7903 120.899 56.4898 120.605 56.2694C120.331 56.029 119.9 55.9088 119.313 55.9088C118.745 55.9088 118.167 55.9689 117.579 56.0891L114.73 68.3202H110.353L113.908 53.2342Z" fill="#F1F1F1"/>
<path d="M139.034 45C139.915 45 140.679 45.1002 141.325 45.3005C141.991 45.4808 142.49 45.6511 142.823 45.8114L141.354 49.3275C141.002 49.1471 140.591 49.0169 140.121 48.9368C139.67 48.8366 139.249 48.7865 138.858 48.7865C137.78 48.7865 136.978 49.067 136.449 49.628C135.94 50.1889 135.587 50.8902 135.391 51.7316L135.215 52.513H140.385L139.504 56.1793H134.363L132.571 63.8425C131.906 66.7074 131.181 68.9313 130.398 70.514C129.614 72.1168 128.753 73.2788 127.813 74L123.906 73.429C124.415 72.9482 124.885 72.3572 125.316 71.656C125.747 70.9547 126.129 70.2135 126.462 69.4321C126.814 68.6508 127.108 67.8594 127.343 67.058C127.597 66.2366 127.803 65.4753 127.96 64.7741L131.015 51.6715C131.504 49.5478 132.385 47.905 133.658 46.743C134.931 45.581 136.723 45 139.034 45Z" fill="#F1F1F1"/>
<path d="M140.781 62.1295C140.781 60.8473 140.996 59.6052 141.427 58.4031C141.877 57.201 142.504 56.1392 143.307 55.2176C144.11 54.276 145.079 53.5247 146.215 52.9637C147.37 52.3827 148.643 52.0922 150.034 52.0922C150.719 52.0922 151.355 52.1924 151.943 52.3927C152.53 52.5931 153.04 52.8836 153.47 53.2642C153.921 53.6449 154.264 54.1157 154.499 54.6767C154.753 55.2176 154.88 55.8387 154.88 56.5399C154.88 57.6618 154.636 58.6135 154.146 59.3948C153.656 60.1762 152.971 60.8173 152.09 61.3181C151.228 61.799 150.2 62.1496 149.006 62.3699C147.811 62.5903 146.509 62.7005 145.099 62.7005C145.236 63.542 145.53 64.143 145.98 64.5036C146.45 64.8442 147.184 65.0145 148.183 65.0145C148.81 65.0145 149.446 64.9644 150.092 64.8642C150.739 64.744 151.346 64.5737 151.914 64.3534L152.237 67.8694C151.688 68.0898 150.983 68.2902 150.122 68.4705C149.28 68.6508 148.359 68.7409 147.361 68.7409C146.146 68.7409 145.118 68.5706 144.276 68.2301C143.454 67.8694 142.778 67.3886 142.25 66.7876C141.74 66.1865 141.368 65.4853 141.133 64.6839C140.898 63.8826 140.781 63.0311 140.781 62.1295ZM149.329 55.6383C148.33 55.6383 147.449 56.009 146.685 56.7503C145.941 57.4715 145.451 58.4332 145.216 59.6352C146.43 59.5952 147.41 59.495 148.154 59.3347C148.898 59.1544 149.476 58.944 149.887 58.7036C150.298 58.4632 150.572 58.2028 150.709 57.9223C150.846 57.6418 150.915 57.3613 150.915 57.0808C150.915 56.1192 150.386 55.6383 149.329 55.6383Z" fill="#F1F1F1"/>
<path d="M167.284 56.3596C166.893 56.2594 166.501 56.1693 166.109 56.0891C165.737 55.9889 165.179 55.9389 164.435 55.9389C164.161 55.9389 163.857 55.9689 163.524 56.029C163.191 56.0691 162.917 56.1192 162.702 56.1793L159.853 68.3202H155.476L159.001 53.3544C159.843 53.0739 160.783 52.8135 161.821 52.5731C162.878 52.3126 164.063 52.1824 165.375 52.1824C165.865 52.1824 166.403 52.2325 166.991 52.3326C167.598 52.4128 168.126 52.553 168.577 52.7534L167.284 56.3596Z" fill="#F1F1F1"/>
<path d="M168.29 62.1295C168.29 60.8473 168.506 59.6052 168.937 58.4031C169.387 57.201 170.014 56.1392 170.816 55.2176C171.619 54.276 172.589 53.5247 173.725 52.9637C174.88 52.3827 176.153 52.0922 177.543 52.0922C178.229 52.0922 178.865 52.1924 179.452 52.3927C180.04 52.5931 180.549 52.8836 180.98 53.2642C181.43 53.6449 181.773 54.1157 182.008 54.6767C182.263 55.2176 182.39 55.8387 182.39 56.5399C182.39 57.6618 182.145 58.6135 181.656 59.3948C181.166 60.1762 180.481 60.8173 179.599 61.3181C178.738 61.799 177.71 62.1496 176.515 62.3699C175.321 62.5903 174.018 62.7005 172.608 62.7005C172.745 63.542 173.039 64.143 173.49 64.5036C173.96 64.8442 174.694 65.0145 175.693 65.0145C176.319 65.0145 176.956 64.9644 177.602 64.8642C178.248 64.744 178.855 64.5737 179.423 64.3534L179.746 67.8694C179.198 68.0898 178.493 68.2902 177.631 68.4705C176.789 68.6508 175.869 68.7409 174.87 68.7409C173.656 68.7409 172.628 68.5706 171.786 68.2301C170.963 67.8694 170.288 67.3886 169.759 66.7876C169.25 66.1865 168.878 65.4853 168.643 64.6839C168.408 63.8826 168.29 63.0311 168.29 62.1295ZM176.838 55.6383C175.839 55.6383 174.958 56.009 174.195 56.7503C173.45 57.4715 172.961 58.4332 172.726 59.6352C173.94 59.5952 174.919 59.495 175.663 59.3347C176.407 59.1544 176.985 58.944 177.396 58.7036C177.808 58.4632 178.082 58.2028 178.219 57.9223C178.356 57.6418 178.424 57.3613 178.424 57.0808C178.424 56.1192 177.896 55.6383 176.838 55.6383Z" fill="#F1F1F1"/>
<path d="M186.54 53.2342C186.873 53.134 187.235 53.0238 187.626 52.9036C188.038 52.7634 188.488 52.6432 188.978 52.543C189.487 52.4228 190.045 52.3326 190.652 52.2725C191.279 52.1924 191.984 52.1523 192.767 52.1523C195.078 52.1523 196.664 52.8335 197.526 54.1959C198.387 55.5582 198.534 57.4214 197.966 59.7855L195.969 68.3202H191.592L193.531 59.9658C193.648 59.4449 193.736 58.944 193.795 58.4632C193.873 57.9623 193.873 57.5316 193.795 57.171C193.717 56.7903 193.531 56.4898 193.237 56.2694C192.963 56.029 192.532 55.9088 191.944 55.9088C191.377 55.9088 190.799 55.9689 190.211 56.0891L187.362 68.3202H182.985L186.54 53.2342Z" fill="#F1F1F1"/>
<path d="M200.533 62.0093C200.533 60.647 200.748 59.3648 201.179 58.1627C201.61 56.9606 202.227 55.9088 203.03 55.0073C203.833 54.1057 204.802 53.3945 205.938 52.8736C207.093 52.3527 208.376 52.0922 209.786 52.0922C210.667 52.0922 211.45 52.1824 212.136 52.3627C212.841 52.523 213.477 52.7434 214.045 53.0238L212.547 56.5098C212.155 56.3496 211.744 56.2093 211.313 56.0891C210.902 55.9489 210.393 55.8788 209.786 55.8788C208.317 55.8788 207.162 56.3896 206.32 57.4114C205.478 58.4131 205.057 59.7855 205.057 61.5285C205.057 62.5503 205.272 63.3817 205.703 64.0228C206.134 64.6439 206.927 64.9544 208.082 64.9544C208.65 64.9544 209.198 64.8943 209.727 64.7741C210.256 64.6539 210.726 64.5036 211.137 64.3233L211.46 67.8995C210.912 68.1199 210.305 68.3102 209.639 68.4705C208.993 68.6508 208.2 68.7409 207.26 68.7409C206.045 68.7409 205.017 68.5606 204.175 68.2C203.333 67.8394 202.638 67.3585 202.09 66.7575C201.541 66.1364 201.14 65.4152 200.885 64.5938C200.65 63.7724 200.533 62.9109 200.533 62.0093Z" fill="#F1F1F1"/>
<path d="M213.9 62.1295C213.9 60.8473 214.116 59.6052 214.547 58.4031C214.997 57.201 215.624 56.1392 216.427 55.2176C217.23 54.276 218.199 53.5247 219.335 52.9637C220.49 52.3827 221.763 52.0922 223.153 52.0922C223.839 52.0922 224.475 52.1924 225.063 52.3927C225.65 52.5931 226.159 52.8836 226.59 53.2642C227.04 53.6449 227.383 54.1157 227.618 54.6767C227.873 55.2176 228 55.8387 228 56.5399C228 57.6618 227.755 58.6135 227.266 59.3948C226.776 60.1762 226.091 60.8173 225.209 61.3181C224.348 61.799 223.32 62.1496 222.125 62.3699C220.931 62.5903 219.628 62.7005 218.218 62.7005C218.356 63.542 218.649 64.143 219.1 64.5036C219.57 64.8442 220.304 65.0145 221.303 65.0145C221.929 65.0145 222.566 64.9644 223.212 64.8642C223.858 64.744 224.465 64.5737 225.033 64.3534L225.356 67.8694C224.808 68.0898 224.103 68.2902 223.241 68.4705C222.399 68.6508 221.479 68.7409 220.48 68.7409C219.266 68.7409 218.238 68.5706 217.396 68.2301C216.573 67.8694 215.898 67.3886 215.369 66.7876C214.86 66.1865 214.488 65.4853 214.253 64.6839C214.018 63.8826 213.9 63.0311 213.9 62.1295ZM222.448 55.6383C221.45 55.6383 220.568 56.009 219.805 56.7503C219.06 57.4715 218.571 58.4332 218.336 59.6352C219.55 59.5952 220.529 59.495 221.273 59.3347C222.017 59.1544 222.595 58.944 223.006 58.7036C223.418 58.4632 223.692 58.2028 223.829 57.9223C223.966 57.6418 224.034 57.3613 224.034 57.0808C224.034 56.1192 223.506 55.6383 222.448 55.6383Z" fill="#F1F1F1"/>
</svg>
