<svg width="211" height="22" viewBox="0 0 211 22" fill="none" xmlns="http://www.w3.org/2000/svg">
<path d="M10.32 6.64695C11.0076 6.26589 11.7697 6.07317 12.6107 6.07317C13.4517 6.07317 14.2269 6.29874 14.9387 6.73893C15.6504 7.1835 16.2505 7.88868 16.7323 8.85667L22.3453 5.99214C21.6335 4.18538 20.4225 2.78596 18.7186 1.7917C17.0126 0.799622 14.9891 0.30249 12.6479 0.30249C10.3068 0.30249 8.3161 0.755822 6.52248 1.65592C4.72886 2.56039 3.32288 3.81089 2.30671 5.41397C1.28836 7.01706 0.780273 8.86324 0.780273 10.9503C0.780273 13.0374 1.28836 14.888 2.30671 16.5042C3.32507 18.1204 4.72886 19.384 6.52248 20.3017C8.3161 21.2171 10.3572 21.677 12.6479 21.677C14.9387 21.677 17.0126 21.1799 18.7186 20.1878C20.4247 19.1957 21.6335 17.7941 22.3453 15.9873L16.7323 13.1228C16.2483 14.0908 15.6504 14.7938 14.9387 15.2405C14.2269 15.6851 13.4495 15.9063 12.6107 15.9063C11.7719 15.9063 11.0076 15.7158 10.32 15.3325C9.63229 14.9515 9.09355 14.3908 8.69935 13.6528C8.30515 12.9148 8.11024 12.0103 8.11024 10.9416C8.11024 9.87283 8.30515 9.01654 8.69935 8.28945C9.09355 7.56456 9.63229 7.01268 10.32 6.63162L10.32 6.64476L10.32 6.64695Z" fill="white"/>
<path d="M40.91 1.6669C39.1405 0.762428 37.1257 0.313477 34.8612 0.313477C32.5967 0.313477 30.5841 0.766808 28.8277 1.6669C27.0713 2.57138 25.6916 3.82187 24.6864 5.42496C23.6812 7.02805 23.1797 8.87422 23.1797 10.9613C23.1797 13.0484 23.6812 14.8989 24.6864 16.5152C25.6916 18.1314 27.0713 19.395 28.8277 20.3126C30.5841 21.2281 32.5945 21.688 34.8612 21.688C37.1279 21.688 39.1427 21.2303 40.91 20.3126C42.6795 19.3972 44.057 18.1314 45.0513 16.5152C46.0434 14.8989 46.5405 13.0484 46.5405 10.9613C46.5405 8.87422 46.0434 7.02805 45.0513 5.42496C44.0592 3.82187 42.6795 2.56919 40.91 1.6669ZM38.6411 13.6506C38.2601 14.4018 37.7454 14.9668 37.0972 15.3479C36.449 15.729 35.7065 15.9195 34.8656 15.9195C34.0246 15.9195 33.3216 15.729 32.6734 15.3479C32.0251 14.9668 31.5017 14.4018 31.1075 13.6506C30.7133 12.8995 30.5184 12.0037 30.5184 10.9613C30.5184 9.91886 30.7133 9.03628 31.1075 8.3092C31.5017 7.58431 32.0229 7.03243 32.6734 6.65136C33.3216 6.2703 34.0531 6.07758 34.8656 6.07758C35.6781 6.07758 36.449 6.26811 37.0972 6.65136C37.7454 7.03243 38.2601 7.58431 38.6411 8.3092C39.0222 9.03409 39.2127 9.91667 39.2127 10.9613C39.2127 12.0059 39.0222 12.8995 38.6411 13.6506Z" fill="white"/>
<path d="M67.3435 1.28584C66.0448 0.637598 64.5951 0.313477 62.992 0.313477C61.2619 0.313477 59.7091 0.690158 58.3338 1.43695C57.6177 1.82677 56.9804 2.32391 56.4241 2.9174L56.4241 0.652928L49.5146 0.652928L49.5146 21.3419L56.7658 21.3419L56.7658 11.3424C56.7658 10.197 56.9432 9.26842 57.3001 8.55448C57.6571 7.84273 58.152 7.31494 58.7893 6.97111C59.4266 6.62727 60.1252 6.45864 60.8896 6.45864C61.9583 6.45864 62.7905 6.79809 63.3884 7.46824C63.9862 8.14276 64.2841 9.21587 64.2841 10.6919L64.2841 21.3398L71.5374 21.3398L71.5374 9.50714C71.5374 7.36969 71.1607 5.62644 70.4139 4.27739C69.6627 2.92835 68.64 1.93189 67.3435 1.28146L67.3479 1.28146L67.3435 1.28584Z" fill="white"/>
<path d="M91.0633 10.2146C90.3384 9.76998 89.5369 9.43491 88.6587 9.20496C87.7805 8.97501 86.911 8.80638 86.046 8.6925C85.1809 8.57862 84.3881 8.46255 83.6611 8.34867C82.9362 8.23479 82.3536 8.06835 81.9266 7.85154C81.4952 7.63472 81.2783 7.32593 81.2783 6.91859C81.2783 6.51125 81.5236 6.16742 82.0208 5.8871C82.5179 5.60678 83.3742 5.46662 84.5962 5.46662C85.5116 5.46662 86.4796 5.57612 87.498 5.78855C88.5163 6.00536 89.5347 6.40832 90.553 6.98867L92.7299 2.06334C91.7115 1.47861 90.461 1.04061 88.9718 0.747145C87.4826 0.453684 86.0153 0.309143 84.5633 0.309143C82.3996 0.309143 80.5666 0.611364 79.0642 1.20486C77.5619 1.80273 76.4253 2.61741 75.65 3.64891C74.8726 4.6804 74.4871 5.85425 74.4871 7.1792C74.4871 8.35086 74.7039 9.31665 75.1354 10.081C75.5668 10.8453 76.145 11.4519 76.8698 11.8921C77.5947 12.3367 78.3963 12.6674 79.2745 12.8842C80.1527 13.101 81.0221 13.274 81.8872 13.3966C82.7522 13.5237 83.545 13.6375 84.2721 13.7405C84.997 13.8412 85.5817 13.9858 86.0285 14.1785C86.4752 14.3712 86.6942 14.6712 86.6942 15.0742C86.6942 15.5078 86.4599 15.8495 85.989 16.1057C85.5182 16.3597 84.675 16.4867 83.453 16.4867C82.231 16.4867 80.9323 16.3181 79.6358 15.9743C78.3372 15.6305 77.2049 15.1684 76.2369 14.5836L74.0601 19.5462C75.0784 20.1572 76.4187 20.6653 78.0853 21.0726C79.7519 21.48 81.4623 21.6836 83.2187 21.6836C85.4591 21.6836 87.3337 21.3792 88.8492 20.7682C90.3647 20.1572 91.5101 19.3425 92.2853 18.3242C93.0628 17.3058 93.4482 16.1604 93.4482 14.888C93.4482 13.7164 93.2314 12.7593 92.8 12.0082C92.3663 11.257 91.7904 10.6591 91.0655 10.2146L91.0633 10.2146Z" fill="white"/>
<path d="M111.847 1.55302C110.167 0.725198 108.308 0.313477 106.273 0.313477C104.109 0.313477 102.162 0.766808 100.432 1.6669C98.7022 2.57138 97.3488 3.83063 96.3677 5.44686C95.3888 7.06309 94.9004 8.9005 94.9004 10.9613C94.9004 13.0221 95.4019 14.8595 96.4071 16.4757C97.4123 18.092 98.8249 19.3644 100.645 20.2929C102.465 21.2215 104.593 21.6836 107.037 21.6836C109.024 21.6836 110.741 21.3989 112.193 20.8273C113.642 20.2535 114.865 19.4235 115.859 18.3285L112.042 14.358C111.33 14.969 110.612 15.4224 109.887 15.7114C109.162 16.0049 108.288 16.1494 107.274 16.1494C106.179 16.1494 105.237 15.9545 104.449 15.5603C103.66 15.1661 103.058 14.6011 102.638 13.8631C102.46 13.5499 102.325 13.2017 102.222 12.8316L117.238 12.8316C117.265 12.5513 117.289 12.2468 117.315 11.9161C117.341 11.5855 117.352 11.292 117.352 11.038C117.352 8.7472 116.855 6.80028 115.863 5.1972C114.871 3.59411 113.535 2.38085 111.853 1.55302L111.849 1.55302L111.847 1.55302ZM104.041 6.03816C104.69 5.6571 105.445 5.46438 106.31 5.46438C107.175 5.46438 107.931 5.65491 108.579 6.03816C109.227 6.41922 109.738 6.95359 110.106 7.64125C110.327 8.05297 110.467 8.51506 110.546 9.01657L102.095 9.01657C102.18 8.52382 102.32 8.07049 102.528 7.66315C102.885 6.96235 103.384 6.4236 104.035 6.04254L104.039 6.03816L104.041 6.03816Z" fill="white"/>
<path d="M138.149 1.28584C136.85 0.637598 135.4 0.313477 133.797 0.313477C132.067 0.313477 130.514 0.690158 129.139 1.43695C128.423 1.82677 127.786 2.32391 127.229 2.9174L127.229 0.652928L120.32 0.652928L120.32 21.3419L127.569 21.3419L127.569 11.3424C127.569 10.197 127.746 9.26842 128.103 8.55448C128.46 7.84273 128.955 7.31494 129.592 6.97111C130.23 6.62727 130.928 6.45864 131.693 6.45864C132.761 6.45864 133.593 6.79809 134.191 7.46824C134.789 8.14276 135.087 9.21587 135.087 10.6919L135.087 21.3398L142.34 21.3398L142.34 9.50714C142.34 7.36969 141.964 5.62644 141.217 4.27739C140.466 2.92835 139.443 1.93189 138.146 1.28146L138.151 1.28146L138.149 1.28584Z" fill="white"/>
<path d="M161.867 10.2146C161.142 9.76998 160.34 9.43491 159.462 9.20496C158.584 8.97501 157.714 8.80638 156.849 8.6925C155.984 8.57862 155.191 8.46255 154.464 8.34867C153.739 8.23479 153.157 8.06835 152.73 7.85154C152.296 7.63472 152.082 7.32593 152.082 6.91859C152.082 6.51125 152.327 6.16742 152.824 5.8871C153.321 5.60678 154.177 5.46662 155.399 5.46662C156.315 5.46662 157.283 5.57612 158.301 5.78855C159.32 6.00536 160.338 6.40832 161.356 6.98867L163.533 2.06334C162.515 1.47861 161.264 1.04061 159.775 0.747145C158.286 0.453684 156.819 0.309143 155.367 0.309143C153.203 0.309143 151.37 0.611364 149.87 1.20486C148.367 1.80273 147.231 2.61741 146.455 3.64891C145.68 4.6804 145.293 5.85425 145.293 7.1792C145.293 8.35086 145.509 9.31665 145.941 10.081C146.374 10.8453 146.95 11.4519 147.675 11.8921C148.4 12.3367 149.202 12.6674 150.08 12.8842C150.958 13.101 151.828 13.274 152.693 13.3966C153.558 13.5237 154.35 13.6375 155.077 13.7405C155.802 13.8412 156.389 13.9858 156.834 14.1785C157.278 14.369 157.5 14.6712 157.5 15.0742C157.5 15.5078 157.268 15.8495 156.797 16.1057C156.326 16.3597 155.48 16.4867 154.261 16.4867C153.041 16.4867 151.74 16.3181 150.443 15.9743C149.145 15.6305 148.013 15.1684 147.045 14.5836L144.868 19.5462C145.886 20.1572 147.226 20.6653 148.893 21.0726C150.56 21.48 152.27 21.6836 154.026 21.6836C156.267 21.6836 158.141 21.3792 159.657 20.7682C161.172 20.1572 162.318 19.3425 163.093 18.3242C163.87 17.3058 164.256 16.1604 164.256 14.888C164.256 13.7164 164.039 12.7593 163.608 12.0082C163.174 11.257 162.598 10.6591 161.873 10.2146L161.867 10.2146Z" fill="white"/>
<path d="M181.509 10.6132C181.509 11.7585 181.331 12.6915 180.974 13.4164C180.618 14.1413 180.147 14.6713 179.562 14.9998C178.977 15.3304 178.327 15.4969 177.615 15.4969C176.52 15.4969 175.677 15.1531 175.079 14.4654C174.481 13.7777 174.183 12.6324 174.183 11.0293L174.183 0.648621L166.932 0.648621L166.932 12.2141C166.932 14.3778 167.307 16.1627 168.056 17.5774C168.807 18.99 169.849 20.0258 171.187 20.6872C172.523 21.3486 174.03 21.6793 175.71 21.6793C177.289 21.6793 178.752 21.307 180.101 20.5558C180.762 20.1857 181.347 19.7236 181.857 19.1695L181.857 21.342L188.769 21.342L188.769 0.648621L181.515 0.648621L181.515 10.6088L181.511 10.6132L181.509 10.6132Z" fill="white"/>
<path d="M210.13 12.0103C209.696 11.2592 209.12 10.6613 208.395 10.2167C207.67 9.77215 206.869 9.43708 205.991 9.20713C205.113 8.97718 204.243 8.80855 203.378 8.69467C202.513 8.58079 201.72 8.46472 200.993 8.35084C200.268 8.23696 199.686 8.07051 199.259 7.8537C198.825 7.63689 198.61 7.3281 198.61 6.92076C198.61 6.51342 198.856 6.16959 199.353 5.88926C199.85 5.60894 200.706 5.46878 201.928 5.46878C202.844 5.46878 203.812 5.57828 204.83 5.79071C205.848 6.00752 206.867 6.41049 207.885 6.99084L210.062 2.06551C209.044 1.48077 207.793 1.04277 206.304 0.749312C204.815 0.45585 203.347 0.31131 201.895 0.31131C199.732 0.31131 197.899 0.613531 196.396 1.20702C194.894 1.8049 193.757 2.61958 192.982 3.65107C192.205 4.68257 191.819 5.85641 191.819 7.18137C191.819 8.35303 192.036 9.31882 192.467 10.0831C192.901 10.8474 193.477 11.4541 194.202 11.8943C194.927 12.3388 195.728 12.6695 196.607 12.8863C197.485 13.1032 198.354 13.2762 199.219 13.3988C200.084 13.5258 200.877 13.6397 201.604 13.7426C202.329 13.8434 202.916 13.9879 203.36 14.1806C203.805 14.3734 204.026 14.6734 204.026 15.0764C204.026 15.51 203.792 15.8516 203.321 16.1079C202.85 16.3619 202.007 16.4889 200.785 16.4889C199.563 16.4889 198.264 16.3203 196.968 15.9764C195.669 15.6326 194.537 15.1705 193.569 14.5858L191.392 19.5484C192.41 20.1594 193.751 20.6674 195.417 21.0748C197.084 21.4821 198.794 21.6858 200.551 21.6858C202.791 21.6858 204.666 21.3814 206.181 20.7704C207.697 20.1594 208.842 19.3447 209.617 18.3263C210.395 17.308 210.78 16.1626 210.78 14.8902C210.78 13.7185 210.563 12.7615 210.132 12.0103L210.13 12.0103Z" fill="white"/>
</svg>
