<svg width="1056" height="475" viewBox="0 0 1056 475" fill="none" xmlns="http://www.w3.org/2000/svg">
<path d="M1055.63 28.4801V0H357.5V18.6101C357.5 19.8434 357.01 21.026 356.138 21.8981C355.266 22.7701 354.083 23.26 352.85 23.26C351.617 23.26 350.434 22.7701 349.562 21.8981C348.69 21.026 348.2 19.8434 348.2 18.6101V0H0.540001V28.4801C6.82298 28.4801 12.8486 30.976 17.2914 35.4187C21.7341 39.8614 24.23 45.8871 24.23 52.17C24.23 58.453 21.7341 64.4787 17.2914 68.9214C12.8486 73.3641 6.82298 75.8601 0.540001 75.8601V89.4C6.82298 89.4 12.8486 91.896 17.2914 96.3387C21.7341 100.781 24.23 106.807 24.23 113.09C24.23 119.373 21.7341 125.399 17.2914 129.841C12.8486 134.284 6.82298 136.78 0.540001 136.78V150.32C3.65186 150.319 6.73348 150.931 9.60884 152.12C12.4842 153.31 15.0969 155.055 17.2978 157.255C19.4987 159.455 21.2446 162.067 22.4358 164.942C23.6269 167.817 24.24 170.898 24.24 174.01C24.2315 176.273 23.8946 178.523 23.24 180.69C21.7961 185.601 18.7999 189.911 14.7003 192.976C10.6008 196.041 5.61852 197.695 0.5 197.69V211.23C6.78298 211.23 12.8086 213.726 17.2514 218.169C21.6941 222.611 24.19 228.637 24.19 234.92C24.19 241.203 21.6941 247.229 17.2514 251.671C12.8086 256.114 6.78298 258.61 0.5 258.61V272.15C6.78298 272.15 12.8086 274.646 17.2514 279.089C21.6941 283.531 24.19 289.557 24.19 295.84C24.19 302.123 21.6941 308.149 17.2514 312.591C12.8086 317.034 6.78298 319.53 0.5 319.53V333.07C6.78298 333.07 12.8086 335.566 17.2514 340.009C21.6941 344.451 24.19 350.477 24.19 356.76C24.19 363.043 21.6941 369.069 17.2514 373.511C12.8086 377.954 6.78298 380.45 0.5 380.45V393.99C6.78033 393.99 12.8034 396.485 17.2443 400.926C21.6851 405.367 24.18 411.39 24.18 417.67C24.18 423.95 21.6851 429.973 17.2443 434.414C12.8034 438.855 6.78033 441.35 0.5 441.35V474.86H348.25V455.17C348.25 453.937 348.74 452.754 349.612 451.882C350.484 451.01 351.667 450.52 352.9 450.52C354.133 450.52 355.316 451.01 356.188 451.882C357.06 452.754 357.55 453.937 357.55 455.17V474.86H1055.68V441.36C1049.4 441.36 1043.38 438.865 1038.94 434.424C1034.49 429.983 1032 423.96 1032 417.68C1032 411.4 1034.49 405.377 1038.94 400.936C1043.38 396.495 1049.4 394 1055.68 394V380.46C1049.4 380.46 1043.37 377.964 1038.93 373.521C1034.49 369.079 1031.99 363.053 1031.99 356.77C1031.99 350.487 1034.49 344.461 1038.93 340.019C1043.37 335.576 1049.4 333.08 1055.68 333.08V319.56C1049.4 319.56 1043.37 317.064 1038.93 312.621C1034.49 308.179 1031.99 302.153 1031.99 295.87C1031.99 289.587 1034.49 283.561 1038.93 279.119C1043.37 274.676 1049.4 272.18 1055.68 272.18V258.64C1049.4 258.64 1043.37 256.144 1038.93 251.701C1034.49 247.259 1031.99 241.233 1031.99 234.95C1031.99 228.667 1034.49 222.641 1038.93 218.199C1043.37 213.756 1049.4 211.26 1055.68 211.26V197.72C1049.4 197.72 1043.37 195.224 1038.93 190.781C1034.49 186.339 1031.99 180.313 1031.99 174.03C1031.99 167.747 1034.49 161.721 1038.93 157.279C1043.37 152.836 1049.4 150.34 1055.68 150.34V136.8C1049.4 136.8 1043.37 134.304 1038.93 129.861C1034.49 125.419 1031.99 119.393 1031.99 113.11C1031.99 106.827 1034.49 100.801 1038.93 96.3586C1043.37 91.9159 1049.4 89.42 1055.68 89.42V75.8601C1049.4 75.8601 1043.37 73.3641 1038.93 68.9214C1034.49 64.4787 1031.99 58.453 1031.99 52.17C1031.99 45.8871 1034.49 39.8614 1038.93 35.4187C1043.37 30.976 1049.4 28.4801 1055.68 28.4801H1055.63ZM348.25 39.9C348.25 38.6668 348.74 37.4841 349.612 36.6121C350.484 35.74 351.667 35.25 352.9 35.25C354.133 35.25 355.316 35.74 356.188 36.6121C357.06 37.4841 357.55 38.6668 357.55 39.9V101.67C357.55 102.903 357.06 104.086 356.188 104.958C355.316 105.83 354.133 106.32 352.9 106.32C351.667 106.32 350.484 105.83 349.612 104.958C348.74 104.086 348.25 102.903 348.25 101.67V39.9ZM348.25 122.96C348.25 121.727 348.74 120.544 349.612 119.672C350.484 118.8 351.667 118.31 352.9 118.31C354.133 118.31 355.316 118.8 356.188 119.672C357.06 120.544 357.55 121.727 357.55 122.96V184.73C357.55 185.963 357.06 187.146 356.188 188.018C355.316 188.89 354.133 189.38 352.9 189.38C351.667 189.38 350.484 188.89 349.612 188.018C348.74 187.146 348.25 185.963 348.25 184.73V122.96ZM348.25 205.96C348.25 204.727 348.74 203.544 349.612 202.672C350.484 201.8 351.667 201.31 352.9 201.31C354.133 201.31 355.316 201.8 356.188 202.672C357.06 203.544 357.55 204.727 357.55 205.96V267.73C357.55 268.963 357.06 270.146 356.188 271.018C355.316 271.89 354.133 272.38 352.9 272.38C351.667 272.38 350.484 271.89 349.612 271.018C348.74 270.146 348.25 268.963 348.25 267.73V205.96ZM357.55 433.85C357.55 435.083 357.06 436.266 356.188 437.138C355.316 438.01 354.133 438.5 352.9 438.5C351.667 438.5 350.484 438.01 349.612 437.138C348.74 436.266 348.25 435.083 348.25 433.85V372.08C348.25 370.847 348.74 369.664 349.612 368.792C350.484 367.92 351.667 367.43 352.9 367.43C354.133 367.43 355.316 367.92 356.188 368.792C357.06 369.664 357.55 370.847 357.55 372.08V433.85ZM357.55 350.79C357.55 352.023 357.06 353.206 356.188 354.078C355.316 354.95 354.133 355.44 352.9 355.44C351.667 355.44 350.484 354.95 349.612 354.078C348.74 353.206 348.25 352.023 348.25 350.79V289.02C348.25 287.787 348.74 286.604 349.612 285.732C350.484 284.86 351.667 284.37 352.9 284.37C354.133 284.37 355.316 284.86 356.188 285.732C357.06 286.604 357.55 287.787 357.55 289.02V350.79Z" fill="url(#paint0_linear_1_384)"/>
<defs>
<linearGradient id="paint0_linear_1_384" x1="1119.41" y1="159.76" x2="-370.56" y2="376.87" gradientUnits="userSpaceOnUse">
<stop stop-color="#4F432A"/>
<stop offset="1" stop-color="#AE904C"/>
</linearGradient>
</defs>
</svg>
